<?xml version="1.0" encoding="UTF-8" standalone="no"?>
<!DOCTYPE svg PUBLIC "-//W3C//DTD SVG 1.1//EN" "http://www.w3.org/Graphics/SVG/1.1/DTD/svg11.dtd">
<svg width="100%" height="100%" viewBox="0 0 200 200" version="1.1" xmlns="http://www.w3.org/2000/svg" xmlns:xlink="http://www.w3.org/1999/xlink" xml:space="preserve" xmlns:serif="http://www.serif.com/" style="fill-rule:evenodd;clip-rule:evenodd;stroke-linecap:round;stroke-linejoin:round;stroke-miterlimit:1.5;">
    <g transform="matrix(0.93865,0,0,0.93865,-11.4104,-12.7306)">
        <circle cx="148.709" cy="87.423" r="33.138" style="stroke:black;stroke-width:2.22px;"/>
    </g>
    <path d="M97.878,76.395C97.878,76.395 95.181,76.309 91.209,76.182C70.717,75.526 51.424,66.367 37.962,50.902C34.357,46.761 31.749,43.764 31.749,43.764C31.749,43.764 30.942,49.547 30.027,56.111C28.43,67.567 33.205,78.982 42.483,85.888C42.483,85.888 42.483,85.888 42.483,85.888L28.171,81.66C28.171,81.66 28.198,82.249 28.245,83.25C28.916,97.682 39.363,109.787 53.542,112.562C53.543,112.562 53.543,112.562 53.543,112.562L38.905,114.188C38.905,114.188 39.079,114.614 39.377,115.344C44.269,127.334 55.882,135.214 68.831,135.332C68.831,135.332 68.831,135.332 68.831,135.332C68.831,135.332 68.831,135.332 68.831,135.332C57.219,143.851 43.181,148.42 28.78,148.369C24.597,148.354 21.502,148.343 21.502,148.343C21.502,148.343 22.379,148.873 23.794,149.729C37.766,158.18 53.804,162.597 70.132,162.493L70.133,162.493C119.151,162.639 159.033,123.069 159.272,74.051C159.283,71.821 159.289,70.558 159.289,70.558L160.325,68.539C160.325,68.539 160.325,68.539 160.325,68.539C165.814,64.759 170.574,60.019 174.378,54.548C174.906,53.788 175.248,53.297 175.248,53.297L158.034,57.454C158.034,57.454 158.034,57.454 158.034,57.453C163.738,53.414 168.192,47.853 170.888,41.404C171.082,40.942 171.197,40.666 171.197,40.666L151.105,47.861" style="stroke:black;stroke-width:2.08px;"/>
</svg>
